<svg width="48" height="44" viewBox="0 0 48 44" fill="none" xmlns="http://www.w3.org/2000/svg">
<path d="M17.6172 27.7053L29.8386 5.63168C30.006 5.32908 30.175 5.02768 30.326 4.71488C30.463 4.43088 30.5794 4.14408 30.6552 3.83428C30.8158 3.18248 30.7728 2.50308 30.5232 1.88088C30.2756 1.26188 29.8398 0.745283 29.283 0.409883C28.7307 0.0756393 28.0809 -0.0601094 27.441 0.025083C26.7996 0.111083 26.214 0.412083 25.7524 0.882683C25.5336 1.10628 25.3532 1.35488 25.186 1.62068C25.002 1.91328 24.836 2.21648 24.668 2.51908L23.8952 3.91488L23.1222 2.51908C22.9548 2.21608 22.7888 1.91308 22.6048 1.62068C22.4374 1.35488 22.257 1.10628 22.0378 0.882683C21.5768 0.412083 20.9912 0.111283 20.3498 0.024683C19.7099 -0.0602926 19.0601 0.0755912 18.5078 0.409883C17.951 0.745283 17.515 1.26188 17.2672 1.88088C17.018 2.50288 16.975 3.18248 17.1352 3.83428C17.2112 4.14428 17.3276 4.43108 17.4648 4.71488C17.6154 5.02768 17.7844 5.32888 17.9522 5.63168L20.4482 10.1403L10.7232 27.7053H4.059C3.7238 27.7053 3.3888 27.7039 3.0538 27.7237C2.7494 27.7417 2.453 27.7805 2.1578 27.8665C1.5362 28.0477 0.9934 28.4261 0.6012 28.9625C0.2112 29.4955 0 30.1483 0 30.8183C0 31.4887 0.2114 32.1407 0.6012 32.6737C0.9932 33.2103 1.5362 33.5887 2.1576 33.7697C2.453 33.8557 2.7496 33.8943 3.0538 33.9127C3.3888 33.9327 3.7238 33.9307 4.059 33.9307H30.2538C30.288 33.8593 30.3718 33.6719 30.4538 33.3913C31.2838 30.5611 29.2226 27.7053 26.3844 27.7053H17.6172ZM6.226 34.9501L4.6416 37.9517C4.478 38.2623 4.3128 38.5717 4.1648 38.8927C4.0308 39.1843 3.9168 39.4787 3.8426 39.7967C3.6856 40.4659 3.7274 41.1635 3.9716 41.8025C4.214 42.4375 4.6408 42.9685 5.1856 43.3123C5.731 43.6563 6.3638 43.7955 6.9882 43.7073C7.616 43.6193 8.1892 43.3101 8.6408 42.8269C8.8552 42.5973 9.0316 42.3421 9.1952 42.0695C9.3756 41.7689 9.538 41.4577 9.7022 41.1471L12 36.7937C11.8208 36.4957 10.1054 33.8529 6.226 34.9501ZM47.3982 28.9389C47.0125 28.4163 46.4647 28.036 45.8402 27.8575C45.545 27.7725 45.248 27.7343 44.9436 27.7165C44.608 27.6967 44.2732 27.6983 43.9376 27.6983H37.296L28.5178 12.0643C27.1868 13.4653 26.5914 15.0343 26.3632 16.4595C26.0322 18.5261 26.4366 20.6463 27.4552 22.4603L38.0034 41.2469C38.1714 41.5457 38.3374 41.8449 38.5216 42.1339C38.689 42.3959 38.8694 42.6413 39.0888 42.8619C39.5508 43.3265 40.1364 43.6237 40.7786 43.7083C41.417 43.7931 42.0646 43.6595 42.622 43.3285C43.1788 42.9979 43.6156 42.4877 43.864 41.8771C44.1132 41.2627 44.156 40.5921 43.9956 39.9489C43.9194 39.6431 43.8032 39.3599 43.6656 39.0797C43.515 38.7711 43.346 38.4737 43.178 38.1749L40.746 33.8425H43.938C44.2734 33.8425 44.6082 33.8443 44.9438 33.8245C45.2482 33.8065 45.5452 33.7685 45.8404 33.6835C46.4649 33.5049 47.0127 33.1247 47.3984 32.6021C47.7899 32.0718 48.0008 31.4297 48 30.7705C48.0007 30.1113 47.7898 29.4692 47.3982 28.9389V28.9389Z" fill="url(#paint0_linear_29_373)"/>
<defs>
<linearGradient id="paint0_linear_29_373" x1="24" y1="0" x2="24" y2="43.7331" gradientUnits="userSpaceOnUse">
<stop stop-color="#18BFFB"/>
<stop offset="1" stop-color="#2072F3"/>
</linearGradient>
</defs>
</svg>
