<svg width="30" height="30" viewBox="0 0 30 30" fill="none" xmlns="http://www.w3.org/2000/svg">
<path d="M23.75 5H6.25C5.25544 5 4.30161 5.39509 3.59835 6.09835C2.89509 6.80161 2.5 7.75544 2.5 8.75V21.25C2.5 22.2446 2.89509 23.1984 3.59835 23.9017C4.30161 24.6049 5.25544 25 6.25 25H23.75C24.7446 25 25.6984 24.6049 26.4017 23.9017C27.1049 23.1984 27.5 22.2446 27.5 21.25V8.75C27.5 7.75544 27.1049 6.80161 26.4017 6.09835C25.6984 5.39509 24.7446 5 23.75 5ZM25 21.25C25 21.5815 24.8683 21.8995 24.6339 22.1339C24.3995 22.3683 24.0815 22.5 23.75 22.5H6.25C5.91848 22.5 5.60054 22.3683 5.36612 22.1339C5.1317 21.8995 5 21.5815 5 21.25V8.75C5 8.41848 5.1317 8.10054 5.36612 7.86612C5.60054 7.6317 5.91848 7.5 6.25 7.5H23.75C24.0815 7.5 24.3995 7.6317 24.6339 7.86612C24.8683 8.10054 25 8.41848 25 8.75V21.25ZM22.225 11.725C22.4294 11.984 22.5231 12.3134 22.4856 12.6412C22.4481 12.969 22.2826 13.2688 22.025 13.475L17.3375 17.225C16.6734 17.7544 15.8493 18.0427 15 18.0427C14.1507 18.0427 13.3266 17.7544 12.6625 17.225L7.975 13.475C7.74727 13.26 7.60852 12.9674 7.58621 12.6551C7.56389 12.3427 7.65964 12.0333 7.8545 11.7882C8.04936 11.543 8.32914 11.38 8.63849 11.3312C8.94783 11.2825 9.2642 11.3516 9.525 11.525L14.225 15.275C14.4457 15.4494 14.7187 15.5442 15 15.5442C15.2813 15.5442 15.5543 15.4494 15.775 15.275L20.475 11.525C20.734 11.3206 21.0634 11.2269 21.3912 11.2644C21.719 11.3019 22.0188 11.4674 22.225 11.725Z" fill="#333333"/>
</svg>
