<svg width="26" height="23" viewBox="0 0 26 23" fill="none" xmlns="http://www.w3.org/2000/svg">
<path fill-rule="evenodd" clip-rule="evenodd" d="M24.325 9.0375C24.338 8.94211 24.338 8.84539 24.325 8.75C24.325 6.33375 22.3662 4.375 19.95 4.375H14.375C13.6846 4.375 13.125 3.81536 13.125 3.125C13.125 2.2962 12.7958 1.50134 12.2097 0.915291C11.6237 0.32924 10.8288 0 10 0H4.6875C2.09867 0 0 2.09867 0 4.6875V18.775C0.0204877 20.6609 1.55154 22.1808 3.4375 22.1875H19.2625C20.6798 22.1811 21.949 21.3085 22.4625 19.9875L25.075 11.8625C25.256 10.8562 24.9813 9.82152 24.325 9.0375ZM1.875 4.6875C1.875 3.1342 3.1342 1.875 4.6875 1.875H10C10.6904 1.875 11.25 2.43464 11.25 3.125C11.2569 4.84804 12.652 6.24315 14.375 6.25H20C21.0384 6.24986 21.9689 6.89169 22.3375 7.8625C22.1212 7.84369 21.9038 7.84369 21.6875 7.8625H6.4375C4.99731 7.86287 3.71002 8.76097 3.2125 10.1125L1.875 13.5875V4.6875ZM19.2625 20.3125C19.8959 20.3117 20.465 19.9257 20.7 19.3375L23.3 11.4C23.3474 10.9788 23.2159 10.5571 22.9375 10.2375C22.6261 9.87366 22.1661 9.67126 21.6875 9.6875H6.4375C5.7801 9.68785 5.19207 10.0965 4.9625 10.7125L1.875 18.9C1.95809 19.7011 2.63213 20.3104 3.4375 20.3125H19.2625Z" fill="black"/>
</svg>
