<svg width="27" height="27" viewBox="0 0 27 27" fill="none" xmlns="http://www.w3.org/2000/svg">
<g clip-path="url(#clip0_36_379)" filter="url(#filter0_d_36_379)">
<rect width="19" height="19" transform="translate(4)" fill="#191919"/>
<path fill-rule="evenodd" clip-rule="evenodd" d="M13.5 0C8.2533 0 4 4.2533 4 9.5C4 14.7467 8.2533 19 13.5 19C18.7467 19 23 14.7467 23 9.5C23 4.2533 18.7467 0 13.5 0ZM5.58333 9.5C5.58333 5.12802 9.12604 1.58333 13.5 1.58333C17.872 1.58333 21.4167 5.12802 21.4167 9.5C21.4167 12.9932 19.1505 15.962 15.9832 17.0004C15.5775 17.0795 15.4389 16.8322 15.4389 16.6243C15.4389 16.5394 15.44 16.3898 15.4414 16.1893C15.4444 15.7825 15.4488 15.1663 15.4488 14.4565C15.4488 13.715 15.1915 13.2294 14.9144 12.9919C16.6759 12.7973 18.5264 12.1277 18.5264 9.08636C18.5264 8.22212 18.2197 7.51622 17.715 6.96205C17.7941 6.76215 18.0613 5.95729 17.6358 4.86677C17.6358 4.86677 16.9728 4.65434 15.4686 5.67823C14.8353 5.50208 14.1624 5.415 13.4894 5.41104C12.8165 5.415 12.1436 5.50208 11.5103 5.67823C9.99622 4.65434 9.33319 4.86677 9.33319 4.86677C8.90767 5.95729 9.17486 6.76215 9.26392 6.96205C8.75594 7.51622 8.44917 8.22212 8.44917 9.08636C8.44917 12.1198 10.297 12.8006 12.0552 12.9985C11.8289 13.1964 11.6251 13.5454 11.5538 14.0574C11.1012 14.2599 9.95399 14.6095 9.24809 13.399C9.24809 13.399 8.83049 12.639 8.03552 12.5835C8.03552 12.5835 7.26299 12.5736 7.9801 13.0645C7.9801 13.0645 8.50063 13.3086 8.86083 14.2223C8.86083 14.2223 9.32528 15.7621 11.5274 15.2844C11.5293 15.6508 11.5321 15.9673 11.5343 16.2086C11.536 16.4018 11.5373 16.5467 11.5373 16.6303C11.5373 16.8407 11.3922 17.0855 10.9964 17.0109C7.85146 15.9653 5.58333 12.9985 5.58333 9.5Z" fill="white"/>
</g>
<defs>
<filter id="filter0_d_36_379" x="0" y="0" width="27" height="27" filterUnits="userSpaceOnUse" color-interpolation-filters="sRGB">
<feFlood flood-opacity="0" result="BackgroundImageFix"/>
<feColorMatrix in="SourceAlpha" type="matrix" values="0 0 0 0 0 0 0 0 0 0 0 0 0 0 0 0 0 0 127 0" result="hardAlpha"/>
<feOffset dy="4"/>
<feGaussianBlur stdDeviation="2"/>
<feComposite in2="hardAlpha" operator="out"/>
<feColorMatrix type="matrix" values="0 0 0 0 0 0 0 0 0 0 0 0 0 0 0 0 0 0 0.25 0"/>
<feBlend mode="normal" in2="BackgroundImageFix" result="effect1_dropShadow_36_379"/>
<feBlend mode="normal" in="SourceGraphic" in2="effect1_dropShadow_36_379" result="shape"/>
</filter>
<clipPath id="clip0_36_379">
<rect width="19" height="19" fill="white" transform="translate(4)"/>
</clipPath>
</defs>
</svg>
