<svg width="30" height="30" viewBox="0 0 30 30" fill="none" xmlns="http://www.w3.org/2000/svg">
<g clip-path="url(#clip0_6_335)">
<path d="M15 0.371338C6.7125 0.371338 0 7.08759 0 15.3713C0 22.0001 4.2975 27.6213 10.2563 29.6026C11.0063 29.7438 11.2812 29.2801 11.2812 28.8813C11.2812 28.5251 11.2688 27.5813 11.2625 26.3313C7.09 27.2363 6.21 24.3188 6.21 24.3188C5.5275 22.5876 4.54125 22.1251 4.54125 22.1251C3.1825 21.1951 4.64625 21.2138 4.64625 21.2138C6.1525 21.3188 6.94375 22.7588 6.94375 22.7588C8.28125 25.0526 10.455 24.3901 11.3125 24.0063C11.4475 23.0363 11.8338 22.3751 12.2625 22.0001C8.93125 21.6251 5.43 20.3351 5.43 14.5876C5.43 12.9501 6.01125 11.6126 6.97375 10.5626C6.805 10.1838 6.29875 8.65884 7.105 6.59259C7.105 6.59259 8.36125 6.19009 11.23 8.13009C12.43 7.79634 13.705 7.63134 14.98 7.62384C16.255 7.63134 17.53 7.79634 18.73 8.13009C21.58 6.19009 22.8362 6.59259 22.8362 6.59259C23.6425 8.65884 23.1362 10.1838 22.9862 10.5626C23.9425 11.6126 24.5238 12.9501 24.5238 14.5876C24.5238 20.3501 21.0175 21.6188 17.68 21.9876C18.205 22.4376 18.6925 23.3576 18.6925 24.7626C18.6925 26.7701 18.6737 28.3826 18.6737 28.8701C18.6737 29.2638 18.9363 29.7326 19.705 29.5826C25.7062 27.6151 30 21.9901 30 15.3713C30 7.08759 23.2838 0.371338 15 0.371338Z" fill="#333333"/>
</g>
<defs>
<clipPath id="clip0_6_335">
<rect width="30" height="30" fill="white"/>
</clipPath>
</defs>
</svg>
