<svg width="42" height="43" viewBox="0 0 42 43" fill="none" xmlns="http://www.w3.org/2000/svg">
<path d="M15.6243 32.2269C15.6243 32.2269 14.0602 33.1371 16.739 33.4442C19.9848 33.815 21.6435 33.7618 25.2194 33.0859C25.2194 33.0859 26.1614 33.6749 27.4746 34.1854C19.4555 37.6209 9.32663 33.9863 15.6243 32.2269ZM14.6439 27.743C14.6439 27.743 12.8891 29.0421 15.5702 29.3197C19.0375 29.6777 21.775 29.7069 26.5145 28.7947C26.5145 28.7947 27.1684 29.4591 28.1984 29.822C18.5049 32.657 7.70832 30.0452 14.6439 27.743Z" fill="#0074BD"/>
<path d="M22.9038 20.1358C24.8807 22.4114 22.3853 24.4572 22.3853 24.4572C22.3853 24.4572 27.402 21.868 25.0986 18.6242C22.9464 15.6005 21.2966 14.0987 30.2288 8.91821C30.2288 8.91854 16.2077 12.4193 22.9038 20.1358Z" fill="#EA2D2E"/>
<path d="M33.5091 35.5439C33.5091 35.5439 34.6671 36.4988 32.2334 37.2367C27.6061 38.6385 12.9704 39.0611 8.90564 37.2928C7.44515 36.6569 10.185 35.7752 11.047 35.5892C11.9457 35.3946 12.4589 35.4301 12.4589 35.4301C10.8337 34.2859 1.95464 37.6777 7.94948 38.6506C24.297 41.3005 37.7488 37.4572 33.5091 35.5439ZM16.3774 23.0965C16.3774 23.0965 8.93353 24.8648 13.7415 25.5076C15.772 25.7792 19.8178 25.7169 23.5889 25.4006C26.67 25.1417 29.7619 24.5888 29.7619 24.5888C29.7619 24.5888 28.6765 25.0544 27.8903 25.5906C20.3296 27.5793 5.72742 26.653 9.93168 24.62C13.4859 22.9009 16.3774 23.0965 16.3774 23.0965ZM29.7311 30.5604C37.4161 26.5681 33.8625 22.7313 31.3822 23.2481C30.7758 23.3744 30.5038 23.4843 30.5038 23.4843C30.5038 23.4843 30.7296 23.1303 31.1601 22.978C36.0665 21.2537 39.8393 28.065 29.5775 30.7628C29.5775 30.7621 29.6953 30.6555 29.7311 30.5604Z" fill="#0074BD"/>
<path d="M25.0986 0.552002C25.0986 0.552002 29.3537 4.80975 21.0617 11.3549C14.4119 16.6068 19.5454 19.6006 21.0594 23.0227C17.1774 19.5206 14.3299 16.4372 16.2399 13.5677C19.0447 9.35658 26.815 7.314 25.0986 0.552002Z" fill="#EA2D2E"/>
<path d="M17.1327 41.3818C24.5076 41.8533 35.8358 41.1193 36.1039 37.6294C36.1039 37.6294 35.5884 38.9524 30.0083 40.0021C23.7129 41.1873 15.9469 41.0491 11.3423 40.2888C11.3423 40.2892 12.2856 41.0701 17.1327 41.3818Z" fill="#0074BD"/>
</svg>
