<svg width="19" height="19" viewBox="0 0 19 19" fill="none" xmlns="http://www.w3.org/2000/svg">
<g clip-path="url(#clip0_36_391)">
<rect width="19" height="19" fill="#191919"/>
<path fill-rule="evenodd" clip-rule="evenodd" d="M0.517719 2.59355C0 3.60963 0 4.93975 0 7.6V11.4C0 14.0602 0 15.3904 0.517719 16.4065C0.973118 17.3002 1.69978 18.0269 2.59355 18.4823C3.60963 19 4.93975 19 7.6 19H11.4C14.0602 19 15.3904 19 16.4065 18.4823C17.3002 18.0269 18.0269 17.3002 18.4823 16.4065C19 15.3904 19 14.0602 19 11.4V7.6C19 4.93975 19 3.60963 18.4823 2.59355C18.0269 1.69978 17.3002 0.973118 16.4065 0.517719C15.3904 0 14.0602 0 11.4 0H7.6C4.93975 0 3.60963 0 2.59355 0.517719C1.69978 0.973118 0.973118 1.69978 0.517719 2.59355ZM3.37589 15.8333H6.00196V7.37645H3.37589V15.8333ZM3.16667 4.68755C3.16667 5.5273 3.84778 6.22285 4.68752 6.22285C5.52696 6.22285 6.20836 5.5273 6.20836 4.68755C6.20836 4.28419 6.04813 3.89734 5.76292 3.61212C5.4777 3.3269 5.09087 3.16667 4.68752 3.16667C4.28416 3.16667 3.89733 3.3269 3.61211 3.61212C3.3269 3.89734 3.16667 4.28419 3.16667 4.68755ZM13.2101 15.8333H15.8333V11.1878C15.8333 8.91458 15.3448 7.16439 12.687 7.16439C11.4093 7.16439 10.5529 7.8656 10.2023 8.53005H10.1656V7.37645H7.64694V15.8333H10.2702V11.6459C10.2702 10.5432 10.4794 9.47724 11.8447 9.47724C13.1903 9.47724 13.2101 10.7355 13.2101 11.7166V15.8333Z" fill="white"/>
</g>
<defs>
<clipPath id="clip0_36_391">
<rect width="19" height="19" fill="white"/>
</clipPath>
</defs>
</svg>
