<svg width="30" height="30" viewBox="0 0 30 30" fill="none" xmlns="http://www.w3.org/2000/svg">
<g clip-path="url(#clip0_6_327)">
<path d="M16.925 15.0001C16.9317 17.2523 16.0442 19.415 14.4576 21.0134C12.8709 22.6118 10.7147 23.5152 8.46254 23.5251C6.21036 23.5152 4.05419 22.6118 2.46752 21.0134C0.880847 19.415 -0.00660892 17.2523 3.70603e-05 15.0001C-0.00660892 12.7479 0.880847 10.5852 2.46752 8.98676C4.05419 7.38837 6.21036 6.48502 8.46254 6.4751C10.7147 6.48502 12.8709 7.38837 14.4576 8.98676C16.0442 10.5852 16.9317 12.7479 16.925 15.0001ZM26.2 15.0001C26.2 19.4251 24.3125 23.0251 21.975 23.0251C19.6375 23.0251 17.7375 19.4251 17.7375 15.0001C17.7375 10.5751 19.6375 6.9751 21.975 6.9751C24.3125 6.9751 26.2 10.5751 26.2 15.0001ZM30 15.0001C30 18.9626 29.3375 22.1876 28.5125 22.1876C27.6875 22.1876 27.025 18.9626 27.025 15.0001C27.025 11.0376 27.6875 7.8126 28.5125 7.8126C29.3375 7.8126 30 11.0376 30 15.0001Z" fill="black"/>
</g>
<defs>
<clipPath id="clip0_6_327">
<rect width="30" height="30" fill="white"/>
</clipPath>
</defs>
</svg>
