<svg width="33" height="33" viewBox="0 0 33 33" fill="none" xmlns="http://www.w3.org/2000/svg">
<path d="M16.0469 18.9125C17.6209 18.9125 18.8969 17.6365 18.8969 16.0625C18.8969 14.4885 17.6209 13.2125 16.0469 13.2125C14.4729 13.2125 13.1969 14.4885 13.1969 16.0625C13.1969 17.6365 14.4729 18.9125 16.0469 18.9125Z" fill="#61DAFB"/>
<path d="M26.8719 11.3625C26.3219 11.1625 25.7469 10.9625 25.1469 10.7875C25.2969 10.1875 25.4219 9.58752 25.5219 9.01252C26.0469 5.71252 25.4719 3.38752 23.8719 2.48752C23.3969 2.21252 22.8719 2.08752 22.2719 2.08752C20.5219 2.08752 18.2969 3.38752 16.0469 5.56252C13.7969 3.38752 11.5719 2.08752 9.82188 2.08752C9.22188 2.08752 8.69688 2.21252 8.22188 2.48752C6.62188 3.41252 6.04688 5.73752 6.57188 9.01252C6.67188 9.58752 6.79688 10.1875 6.94688 10.7875C6.34688 10.9625 5.77188 11.1375 5.22188 11.3625C2.09688 12.5625 0.396881 14.2125 0.396881 16.0625C0.396881 17.9125 2.12188 19.5625 5.22188 20.7625C5.77188 20.9625 6.34688 21.1625 6.94688 21.3375C6.79688 21.9375 6.67188 22.5375 6.57188 23.1125C6.04688 26.4125 6.62188 28.7375 8.22188 29.6375C8.69688 29.9125 9.22188 30.0375 9.82188 30.0375C11.5969 30.0375 13.8219 28.7375 16.0469 26.5625C18.2969 28.7375 20.5219 30.0375 22.2719 30.0375C22.8719 30.0375 23.3969 29.9125 23.8719 29.6375C25.4719 28.7125 26.0469 26.3875 25.5219 23.1125C25.4219 22.5375 25.2969 21.9375 25.1469 21.3375C25.7469 21.1625 26.3219 20.9875 26.8719 20.7625C29.9969 19.5625 31.6969 17.9125 31.6969 16.0625C31.6969 14.2125 29.9969 12.5625 26.8719 11.3625ZM23.1719 3.73752C24.1969 4.33752 24.5469 6.18752 24.1219 8.81252C24.0469 9.33752 23.9219 9.88752 23.7719 10.4625C22.4719 10.1625 21.0969 9.96252 19.6469 9.83752C18.7969 8.63752 17.9219 7.56252 17.0469 6.58752C18.8969 4.76252 20.7719 3.51252 22.2969 3.51252C22.6219 3.51252 22.9219 3.58752 23.1719 3.73752ZM20.3719 18.5625C19.9219 19.3625 19.3969 20.1625 18.8469 20.9625C17.9219 21.0375 16.9969 21.0625 16.0469 21.0625C15.0719 21.0625 14.1469 21.0375 13.2469 20.9625C12.6969 20.1625 12.1969 19.3625 11.7469 18.5625C11.2719 17.7375 10.8219 16.8875 10.4219 16.0625C10.8219 15.2375 11.2719 14.3875 11.7469 13.5625C12.1969 12.7625 12.7219 11.9625 13.2719 11.1625C14.1969 11.0875 15.1219 11.0625 16.0719 11.0625C17.0469 11.0625 17.9719 11.0875 18.8719 11.1625C19.4219 11.9625 19.9219 12.7625 20.3719 13.5625C20.8469 14.3875 21.2969 15.2375 21.6969 16.0625C21.2719 16.8875 20.8469 17.7125 20.3719 18.5625ZM22.4469 17.7375C22.8219 18.6125 23.1219 19.4625 23.3969 20.3125C22.5469 20.5125 21.6469 20.6625 20.6969 20.7875C20.9969 20.3125 21.3219 19.8125 21.5969 19.2875C21.8969 18.7625 22.1719 18.2375 22.4469 17.7375ZM16.0469 24.5125C15.4469 23.8625 14.8719 23.1625 14.3219 22.4375C14.8969 22.4625 15.4719 22.4875 16.0469 22.4875C16.6219 22.4875 17.1969 22.4625 17.7719 22.4375C17.2219 23.1625 16.6469 23.8625 16.0469 24.5125ZM11.3969 20.7625C10.4469 20.6375 9.54688 20.4875 8.69688 20.2875C8.97188 19.4625 9.27188 18.5875 9.64688 17.7125C9.92188 18.2125 10.1969 18.7375 10.4969 19.2375C10.7969 19.7875 11.0969 20.2625 11.3969 20.7625ZM9.64688 14.3875C9.27188 13.5125 8.97188 12.6625 8.69688 11.8125C9.54688 11.6125 10.4469 11.4625 11.3969 11.3375C11.0969 11.8125 10.7719 12.3125 10.4969 12.8375C10.1969 13.3625 9.92188 13.8875 9.64688 14.3875ZM16.0469 7.61252C16.6469 8.26252 17.2219 8.96252 17.7719 9.68752C17.1969 9.66252 16.6219 9.63752 16.0469 9.63752C15.4719 9.63752 14.8969 9.66252 14.3219 9.68752C14.8719 8.96252 15.4469 8.26252 16.0469 7.61252ZM21.5969 12.8625L20.6969 11.3625C21.6469 11.4875 22.5469 11.6375 23.3969 11.8375C23.1219 12.6625 22.8219 13.5375 22.4469 14.4125C22.1719 13.8875 21.8969 13.3625 21.5969 12.8625ZM7.97188 8.81252C7.54688 6.18752 7.89688 4.33752 8.92188 3.73752C9.17188 3.58752 9.47188 3.51252 9.79688 3.51252C11.2969 3.51252 13.1719 4.73752 15.0469 6.58752C14.1719 7.53752 13.2969 8.63752 12.4469 9.83752C10.9969 9.96252 9.62188 10.1875 8.32188 10.4625C8.17188 9.88752 8.07188 9.33752 7.97188 8.81252ZM1.79688 16.0625C1.79688 14.8875 3.22188 13.6375 5.72188 12.7125C6.22188 12.5125 6.77188 12.3375 7.32188 12.1875C7.72188 13.4375 8.22188 14.7625 8.82188 16.0875C8.22188 17.4125 7.69688 18.7125 7.32188 19.9625C3.87188 18.9625 1.79688 17.4625 1.79688 16.0625ZM8.92188 28.3875C7.89688 27.7875 7.54688 25.9375 7.97188 23.3125C8.04688 22.7875 8.17188 22.2375 8.32188 21.6625C9.62188 21.9625 10.9969 22.1625 12.4469 22.2875C13.2969 23.4875 14.1719 24.5625 15.0469 25.5375C13.1969 27.3625 11.3219 28.6125 9.79688 28.6125C9.47188 28.6125 9.17188 28.5375 8.92188 28.3875ZM24.1219 23.3125C24.5469 25.9375 24.1969 27.7875 23.1719 28.3875C22.9219 28.5375 22.6219 28.6125 22.2969 28.6125C20.7969 28.6125 18.9219 27.3875 17.0469 25.5375C17.9219 24.5875 18.7969 23.4875 19.6469 22.2875C21.0969 22.1625 22.4719 21.9375 23.7719 21.6625C23.9219 22.2375 24.0219 22.7875 24.1219 23.3125ZM26.3719 19.4125C25.8719 19.6125 25.3219 19.7875 24.7719 19.9375C24.3719 18.6875 23.8719 17.3625 23.2719 16.0375C23.8719 14.7125 24.3969 13.4125 24.7719 12.1625C28.2219 13.1625 30.2969 14.6625 30.2969 16.0625C30.2969 17.2375 28.8469 18.4875 26.3719 19.4125Z" fill="#61DAFB"/>
</svg>
