<svg width="400" height="500" viewBox="0 0 400 500" fill="none" xmlns="http://www.w3.org/2000/svg">
<g clip-path="url(#clip0_20_364)">
<rect width="399.984" height="499.984" rx="18" fill="black"/>
<path d="M391.469 445.219C375.766 453.422 294.437 486.703 277.094 495.844C259.75 504.984 250.141 504.75 236.547 498.187C222.953 491.625 136.469 456.937 120.766 449.437C113.031 445.687 109.047 442.641 109.047 439.594V409.828C109.047 409.828 221.547 385.219 239.828 378.891C258.109 372.328 264.203 372.094 279.672 377.719C295.141 383.344 387.719 399.984 402.953 405.609V434.906C402.953 437.953 399.438 441.234 391.469 445.219V445.219Z" fill="#A41E11"/>
<path d="M391.469 415.687C375.766 423.891 294.437 457.172 277.094 466.312C259.75 475.453 250.141 475.219 236.547 468.656C222.953 462.094 136.469 427.172 120.766 419.672C105.297 412.172 104.828 407.016 120.062 401.156C135.297 395.062 221.312 361.312 239.594 354.984C257.875 348.422 263.969 348.187 279.437 353.812C294.906 359.437 375.766 391.547 391 397.172C406.703 402.797 407.172 407.484 391.469 415.687Z" fill="#D82C20"/>
<path d="M391.469 396.937C375.766 405.141 294.437 438.422 277.094 447.562C259.75 456.469 250.141 456.469 236.547 449.906C222.953 443.344 136.469 408.422 120.766 400.922C113.031 397.172 109.047 394.125 109.047 391.078V361.312C109.047 361.312 221.547 336.703 239.828 330.375C258.109 323.812 264.203 323.578 279.672 329.203C295.141 334.828 387.719 351.469 402.953 357.094V386.391C402.953 389.437 399.438 392.719 391.469 396.937V396.937Z" fill="#A41E11"/>
<path d="M391.469 367.172C375.766 375.375 294.437 408.656 277.094 417.797C259.75 426.703 250.141 426.703 236.547 420.141C222.953 413.578 136.469 378.656 120.766 371.156C105.062 363.656 104.828 358.5 120.062 352.641C135.297 346.547 221.312 312.797 239.594 306.469C257.875 299.906 263.969 299.672 279.437 305.297C294.906 310.922 375.766 343.031 391 348.656C406.703 354.281 407.172 358.969 391.469 367.172V367.172Z" fill="#D82C20"/>
<path d="M391.469 346.547C375.766 354.75 294.438 388.031 277.094 397.172C259.75 406.078 250.141 406.078 236.547 399.516C222.953 393.187 136.469 358.266 120.766 350.766C113.031 347.016 108.812 343.969 108.812 340.922V311.156C108.812 311.156 221.312 286.547 239.594 280.219C257.875 273.656 263.969 273.422 279.438 279.047C294.906 284.672 387.484 301.312 402.719 306.937V336.234C402.953 339.281 399.438 342.328 391.469 346.547Z" fill="#A41E11"/>
<path d="M391.469 316.781C375.766 324.984 294.437 358.266 277.094 367.406C259.75 376.312 250.141 376.312 236.547 369.75C222.953 363.187 136.469 328.5 120.766 321C105.062 313.5 104.828 308.344 120.062 302.484C135.297 296.391 221.312 262.641 239.594 256.312C257.875 249.75 263.969 249.516 279.437 255.141C294.906 260.766 375.766 292.875 391 298.5C406.703 304.125 407.172 308.812 391.469 316.781V316.781Z" fill="#D82C20"/>
<path d="M294.438 288.188L269.125 291L263.266 304.594L254.125 289.359L224.828 286.781L246.625 278.813L240.062 266.625L260.687 274.594L279.906 268.266L274.75 280.922L294.438 288.188ZM261.859 354.75L214.281 335.062L282.484 324.75L261.859 354.75Z" fill="white"/>
<path d="M196 324.047C216.063 324.047 232.328 317.751 232.328 309.984C232.328 302.218 216.063 295.922 196 295.922C175.937 295.922 159.672 302.218 159.672 309.984C159.672 317.751 175.937 324.047 196 324.047Z" fill="white"/>
<path d="M324.672 291.938L364.984 307.875L324.672 323.812V291.938Z" fill="#7A0C00"/>
<path d="M280.141 309.75L324.672 291.938V323.813L320.219 325.688L280.141 309.75Z" fill="#AD2115"/>
</g>
<defs>
<clipPath id="clip0_20_364">
<rect width="399.984" height="499.984" rx="18" fill="white"/>
</clipPath>
</defs>
</svg>
