<svg width="480" height="500" viewBox="0 0 480 500" fill="none" xmlns="http://www.w3.org/2000/svg">
<rect width="479.984" height="499.984" rx="18" fill="#BEBEC3" fill-opacity="0.2"/>
<path d="M282.86 370.244C282.86 372.24 283.062 373.859 283.416 375.046C283.821 376.233 284.326 377.527 285.034 378.93C285.287 379.362 285.388 379.793 285.388 380.171C285.388 380.71 285.085 381.25 284.427 381.789L281.242 384.055C280.787 384.379 280.333 384.541 279.928 384.541C279.423 384.541 278.917 384.271 278.411 383.785C277.704 382.976 277.097 382.113 276.592 381.25C276.086 380.333 275.581 379.308 275.024 378.067C271.081 383.03 266.127 385.512 260.162 385.512C255.915 385.512 252.528 384.217 250.051 381.627C247.574 379.038 246.31 375.585 246.31 371.269C246.31 366.684 247.827 362.961 250.91 360.156C253.994 357.35 258.089 355.948 263.296 355.948C265.015 355.948 266.784 356.11 268.655 356.379C270.525 356.649 272.446 357.081 274.468 357.566V353.628C274.468 349.528 273.659 346.669 272.092 344.996C270.475 343.324 267.745 342.515 263.852 342.515C262.083 342.515 260.263 342.73 258.392 343.216C256.522 343.701 254.702 344.295 252.933 345.05C252.124 345.428 251.517 345.644 251.163 345.751C250.809 345.859 250.557 345.913 250.354 345.913C249.647 345.913 249.293 345.374 249.293 344.241V341.597C249.293 340.734 249.394 340.087 249.647 339.709C249.899 339.332 250.354 338.954 251.062 338.576C252.832 337.605 254.955 336.796 257.432 336.149C259.909 335.447 262.538 335.124 265.318 335.124C271.334 335.124 275.732 336.58 278.563 339.493C281.344 342.407 282.759 346.83 282.759 352.765V370.244H282.86ZM262.336 378.444C264.004 378.444 265.723 378.121 267.543 377.473C269.362 376.826 270.98 375.639 272.345 374.021C273.154 372.996 273.761 371.863 274.064 370.568C274.367 369.273 274.569 367.709 274.569 365.874V363.609C273.103 363.231 271.536 362.907 269.919 362.691C268.301 362.476 266.734 362.368 265.167 362.368C261.779 362.368 259.302 363.069 257.634 364.526C255.966 365.982 255.157 368.032 255.157 370.73C255.157 373.265 255.764 375.154 257.027 376.448C258.241 377.797 260.01 378.444 262.336 378.444ZM302.93 384.271C302.02 384.271 301.413 384.109 301.009 383.731C300.604 383.408 300.251 382.652 299.947 381.627L288.067 339.925C287.764 338.846 287.612 338.145 287.612 337.767C287.612 336.904 288.017 336.418 288.825 336.418H293.78C294.74 336.418 295.397 336.58 295.751 336.958C296.156 337.281 296.459 338.037 296.762 339.062L305.255 374.776L313.142 339.062C313.394 337.983 313.698 337.281 314.102 336.958C314.507 336.634 315.214 336.418 316.124 336.418H320.169C321.129 336.418 321.786 336.58 322.191 336.958C322.595 337.281 322.949 338.037 323.151 339.062L331.139 375.207L339.884 339.062C340.188 337.983 340.542 337.281 340.895 336.958C341.3 336.634 341.957 336.418 342.867 336.418H347.568C348.377 336.418 348.832 336.85 348.832 337.767C348.832 338.037 348.782 338.307 348.731 338.63C348.681 338.954 348.579 339.385 348.377 339.979L336.194 381.681C335.891 382.76 335.537 383.462 335.132 383.785C334.728 384.109 334.071 384.325 333.211 384.325H328.864C327.903 384.325 327.246 384.163 326.842 383.785C326.437 383.408 326.083 382.706 325.881 381.627L318.045 346.83L310.26 381.573C310.007 382.652 309.704 383.354 309.3 383.731C308.895 384.109 308.187 384.271 307.277 384.271H302.93ZM367.891 385.728C365.262 385.728 362.633 385.404 360.106 384.756C357.578 384.109 355.606 383.408 354.292 382.598C353.483 382.113 352.927 381.573 352.725 381.088C352.523 380.602 352.422 380.063 352.422 379.577V376.826C352.422 375.693 352.826 375.154 353.584 375.154C353.888 375.154 354.191 375.208 354.494 375.315C354.798 375.423 355.253 375.639 355.758 375.855C357.477 376.664 359.347 377.312 361.319 377.743C363.341 378.175 365.313 378.39 367.335 378.39C370.52 378.39 372.997 377.797 374.716 376.61C376.434 375.423 377.344 373.697 377.344 371.485C377.344 369.974 376.889 368.734 375.979 367.709C375.069 366.684 373.351 365.766 370.874 364.903L363.543 362.476C359.853 361.235 357.123 359.4 355.455 356.973C353.786 354.599 352.927 351.956 352.927 349.15C352.927 346.884 353.382 344.888 354.292 343.162C355.202 341.436 356.415 339.925 357.932 338.738C359.448 337.497 361.167 336.58 363.189 335.933C365.212 335.285 367.335 335.016 369.559 335.016C370.671 335.016 371.834 335.07 372.946 335.231C374.109 335.393 375.171 335.609 376.232 335.825C377.243 336.095 378.204 336.364 379.114 336.688C380.024 337.012 380.731 337.335 381.237 337.659C381.945 338.091 382.45 338.522 382.754 339.008C383.057 339.439 383.208 340.033 383.208 340.788V343.324C383.208 344.457 382.804 345.05 382.046 345.05C381.641 345.05 380.984 344.834 380.125 344.403C377.243 343 374.008 342.299 370.419 342.299C367.537 342.299 365.262 342.784 363.695 343.809C362.128 344.834 361.319 346.399 361.319 348.611C361.319 350.121 361.824 351.416 362.836 352.441C363.847 353.466 365.717 354.491 368.396 355.408L375.575 357.836C379.215 359.077 381.844 360.803 383.411 363.015C384.978 365.227 385.736 367.763 385.736 370.568C385.736 372.888 385.281 374.992 384.422 376.826C383.512 378.66 382.299 380.279 380.731 381.573C379.164 382.922 377.294 383.893 375.12 384.595C372.845 385.35 370.469 385.728 367.891 385.728Z" fill="#221F1F"/>
<path fill-rule="evenodd" clip-rule="evenodd" d="M377.451 411.947C360.819 425.056 336.655 432.016 315.877 432.016C286.759 432.016 260.522 420.525 240.705 401.427C239.137 399.916 240.553 397.866 242.423 399.053C263.858 412.324 290.297 420.363 317.647 420.363C336.099 420.363 356.371 416.263 375.025 407.847C377.805 406.498 380.181 409.789 377.451 411.947Z" fill="#FF9900"/>
<path fill-rule="evenodd" clip-rule="evenodd" d="M384.378 403.53C382.255 400.617 370.324 402.128 364.915 402.829C363.297 403.045 363.044 401.534 364.511 400.401C374.015 393.28 389.636 395.33 391.455 397.704C393.275 400.132 390.95 416.802 382.053 424.786C380.688 426.027 379.373 425.38 379.98 423.761C382.002 418.42 386.501 406.39 384.378 403.53Z" fill="#FF9900"/>
</svg>
