<svg width="32" height="32" viewBox="0 0 32 32" fill="none" xmlns="http://www.w3.org/2000/svg">
<path d="M25.3333 5.33325H6.66663C5.60576 5.33325 4.58834 5.75468 3.8382 6.50482C3.08805 7.25497 2.66663 8.27239 2.66663 9.33325V22.6666C2.66663 23.7275 3.08805 24.7449 3.8382 25.495C4.58834 26.2452 5.60576 26.6666 6.66663 26.6666H25.3333C26.3942 26.6666 27.4116 26.2452 28.1617 25.495C28.9119 24.7449 29.3333 23.7275 29.3333 22.6666V9.33325C29.3333 8.27239 28.9119 7.25497 28.1617 6.50482C27.4116 5.75468 26.3942 5.33325 25.3333 5.33325ZM6.66663 7.99992H25.3333C25.6869 7.99992 26.0261 8.14039 26.2761 8.39044C26.5261 8.64049 26.6666 8.97963 26.6666 9.33325V10.6666H5.33329V9.33325C5.33329 8.97963 5.47377 8.64049 5.72382 8.39044C5.97387 8.14039 6.313 7.99992 6.66663 7.99992ZM26.6666 22.6666C26.6666 23.0202 26.5261 23.3593 26.2761 23.6094C26.0261 23.8594 25.6869 23.9999 25.3333 23.9999H6.66663C6.313 23.9999 5.97387 23.8594 5.72382 23.6094C5.47377 23.3593 5.33329 23.0202 5.33329 22.6666V13.3333H26.6666V22.6666ZM7.99996 19.9999C7.99996 19.6463 8.14044 19.3072 8.39048 19.0571C8.64053 18.8071 8.97967 18.6666 9.33329 18.6666H17.3333C17.6869 18.6666 18.0261 18.8071 18.2761 19.0571C18.5261 19.3072 18.6666 19.6463 18.6666 19.9999C18.6666 20.3535 18.5261 20.6927 18.2761 20.9427C18.0261 21.1928 17.6869 21.3333 17.3333 21.3333H9.33329C8.97967 21.3333 8.64053 21.1928 8.39048 20.9427C8.14044 20.6927 7.99996 20.3535 7.99996 19.9999Z" fill="#222221"/>
</svg>
