<svg width="401" height="501" viewBox="0 0 401 501" fill="none" xmlns="http://www.w3.org/2000/svg">
<g clip-path="url(#clip0_1_294)">
<rect x="0.984375" y="0.984375" width="399.984" height="499.984" rx="18" fill="white"/>
<path d="M424.045 55.5984C417.539 47.1744 408.724 40.9064 398.717 37.5885V36.9393C398.717 6.12073 375.048 -19 345.865 -19C316.668 -19 292.99 6.06727 292.99 36.9469V37.7107C271.608 44.8444 256 66.0469 256 91.0531C256 121.872 279.693 147 308.875 147C315.809 146.984 322.669 145.551 329.048 142.785C335.428 140.02 341.197 135.978 346.015 130.9C350.822 135.981 356.585 140.025 362.959 142.791C369.333 145.557 376.189 146.989 383.117 147C412.247 147 436 121.933 436 91.0531C435.993 78.2083 431.786 65.7392 424.045 55.5984ZM383.125 132.847C361.353 132.847 343.622 114.089 343.622 91.0378C343.651 89.2022 342.965 87.4298 341.714 86.1075C340.463 84.7853 338.75 84.0206 336.948 83.9805C336.052 83.9944 335.168 84.1884 334.346 84.5515C333.525 84.9146 332.781 85.4395 332.16 86.0961C331.538 86.7527 331.05 87.528 330.723 88.3774C330.397 89.2268 330.239 90.1335 330.258 91.0455C330.258 101.494 333.01 111.293 337.713 119.672C334.093 123.824 329.653 127.149 324.683 129.43C319.714 131.711 314.326 132.897 308.875 132.908C287.095 132.908 269.35 114.142 269.35 91.0989C269.35 68.0633 287.095 49.2972 308.875 49.2972C313.6 49.2972 318.182 50.1908 322.577 51.8559C322.63 51.8559 322.675 51.9094 322.728 51.9094C324.25 52.4516 326.395 53.5133 327.063 54.1014C327.714 54.7055 328.48 55.167 329.314 55.4572C330.147 55.7474 331.031 55.8602 331.909 55.7886C332.787 55.717 333.642 55.4625 334.419 55.0409C335.197 54.6193 335.881 54.0396 336.43 53.3376C337.589 51.9064 338.161 50.0744 338.025 48.2242C337.89 46.374 337.057 44.6487 335.702 43.4085C332.777 40.7963 328.24 39.0167 327.122 38.5967C321.312 36.3521 315.149 35.2055 308.935 35.2131C308.088 35.2131 307.247 35.2131 306.4 35.2666C307.3 12.9948 324.647 -4.80896 345.925 -4.80896C367.697 -4.80896 385.427 13.9495 385.427 37.0004C385.448 43.6056 383.957 50.1249 381.073 56.0416C378.19 61.9583 373.993 67.1098 368.815 71.0879C367.376 72.2092 366.411 73.8479 366.118 75.6693C365.825 77.4906 366.227 79.357 367.24 80.8872C368.522 82.7966 370.615 83.8659 372.693 83.8659C374.088 83.8659 375.446 83.405 376.563 82.5522C386.536 74.9389 393.695 64.1205 396.88 51.8483C412.143 57.8439 422.747 73.4556 422.747 91.0989C422.695 114.089 404.965 132.847 383.125 132.847Z" fill="#FD6A00"/>
<path d="M131.045 265.598C124.539 257.174 115.724 250.906 105.717 247.588V246.939C105.717 216.121 82.0475 191 52.865 191C23.6675 191 -0.0099988 216.067 -0.0099988 246.947V247.711C-21.3925 254.844 -37 276.047 -37 301.053C-37 331.872 -13.3075 357 15.875 357C22.8086 356.984 29.6686 355.551 36.0483 352.785C42.4279 350.02 48.1975 345.978 53.015 340.9C57.8224 345.981 63.5847 350.025 69.9589 352.791C76.3331 355.557 83.1887 356.989 90.1175 357C119.247 357 143 331.933 143 301.053C142.993 288.208 138.786 275.739 131.045 265.598ZM90.125 342.847C68.3525 342.847 50.6225 324.089 50.6225 301.038C50.6507 299.202 49.9645 297.43 48.7139 296.108C47.4633 294.785 45.7498 294.021 43.9475 293.98C43.0519 293.994 42.1679 294.188 41.3462 294.552C40.5246 294.915 39.7815 295.44 39.1597 296.096C38.538 296.753 38.0499 297.528 37.7234 298.377C37.397 299.227 37.2386 300.134 37.2575 301.045C37.2575 311.494 40.01 321.293 44.7125 329.672C41.0934 333.824 36.6533 337.149 31.6835 339.43C26.7136 341.711 21.3263 342.897 15.875 342.908C-5.905 342.908 -23.65 324.142 -23.65 301.099C-23.65 278.063 -5.905 259.297 15.875 259.297C20.6 259.297 25.1825 260.191 29.5775 261.856C29.63 261.856 29.675 261.909 29.7275 261.909C31.25 262.452 33.395 263.513 34.0625 264.101C34.7139 264.706 35.4801 265.167 36.3138 265.457C37.1474 265.747 38.0307 265.86 38.9089 265.789C39.7871 265.717 40.6415 265.463 41.4192 265.041C42.1969 264.619 42.8813 264.04 43.43 263.338C44.5892 261.906 45.1607 260.074 45.0252 258.224C44.8896 256.374 44.0575 254.649 42.7025 253.408C39.7775 250.796 35.24 249.017 34.1225 248.597C28.3124 246.352 22.1491 245.206 15.935 245.213C15.0875 245.213 14.2475 245.213 13.4 245.267C14.3 222.995 31.6475 205.191 52.925 205.191C74.6975 205.191 92.4275 223.949 92.4275 247C92.4476 253.606 90.9568 260.125 88.0734 266.042C85.1899 271.958 80.9929 277.11 75.815 281.088C74.3756 282.209 73.4109 283.848 73.1182 285.669C72.8255 287.491 73.2267 289.357 74.24 290.887C75.5225 292.797 77.615 293.866 79.6925 293.866C81.0881 293.866 82.446 293.405 83.5625 292.552C93.5362 284.939 100.695 274.12 103.88 261.848C119.143 267.844 129.747 283.456 129.747 301.099C129.695 324.089 111.965 342.847 90.125 342.847Z" fill="#FD6A00"/>
<path d="M334.045 455.598C327.539 447.174 318.724 440.906 308.717 437.588V436.939C308.717 406.121 285.048 381 255.865 381C226.668 381 202.99 406.067 202.99 436.947V437.711C181.608 444.844 166 466.047 166 491.053C166 521.872 189.693 547 218.875 547C225.809 546.984 232.669 545.551 239.048 542.785C245.428 540.02 251.197 535.978 256.015 530.9C260.822 535.981 266.585 540.025 272.959 542.791C279.333 545.557 286.189 546.989 293.117 547C322.247 547 346 521.933 346 491.053C345.993 478.208 341.786 465.739 334.045 455.598ZM293.125 532.847C271.353 532.847 253.622 514.089 253.622 491.038C253.651 489.202 252.965 487.43 251.714 486.108C250.463 484.785 248.75 484.021 246.948 483.98C246.052 483.994 245.168 484.188 244.346 484.552C243.525 484.915 242.781 485.44 242.16 486.096C241.538 486.753 241.05 487.528 240.723 488.377C240.397 489.227 240.239 490.134 240.258 491.045C240.258 501.494 243.01 511.293 247.713 519.672C244.093 523.824 239.653 527.149 234.683 529.43C229.714 531.711 224.326 532.897 218.875 532.908C197.095 532.908 179.35 514.142 179.35 491.099C179.35 468.063 197.095 449.297 218.875 449.297C223.6 449.297 228.182 450.191 232.577 451.856C232.63 451.856 232.675 451.909 232.728 451.909C234.25 452.452 236.395 453.513 237.063 454.101C237.714 454.706 238.48 455.167 239.314 455.457C240.147 455.747 241.031 455.86 241.909 455.789C242.787 455.717 243.642 455.463 244.419 455.041C245.197 454.619 245.881 454.04 246.43 453.338C247.589 451.906 248.161 450.074 248.025 448.224C247.89 446.374 247.057 444.649 245.702 443.408C242.777 440.796 238.24 439.017 237.122 438.597C231.312 436.352 225.149 435.206 218.935 435.213C218.088 435.213 217.247 435.213 216.4 435.267C217.3 412.995 234.647 395.191 255.925 395.191C277.697 395.191 295.427 413.949 295.427 437C295.448 443.606 293.957 450.125 291.073 456.042C288.19 461.958 283.993 467.11 278.815 471.088C277.376 472.209 276.411 473.848 276.118 475.669C275.825 477.491 276.227 479.357 277.24 480.887C278.522 482.797 280.615 483.866 282.693 483.866C284.088 483.866 285.446 483.405 286.563 482.552C296.536 474.939 303.695 464.12 306.88 451.848C322.143 457.844 332.747 473.456 332.747 491.099C332.695 514.089 314.965 532.847 293.125 532.847Z" fill="#FD6A00"/>
<path d="M351.226 272.242C347.539 267.472 342.544 263.923 336.873 262.044V261.676C336.873 244.225 323.46 230 306.924 230C290.378 230 276.961 244.195 276.961 261.681V262.113C264.844 266.153 256 278.159 256 292.319C256 309.771 269.426 324 285.963 324C289.892 323.991 293.779 323.179 297.394 321.613C301.009 320.047 304.279 317.759 307.008 314.883C309.733 317.76 312.998 320.05 316.61 321.617C320.222 323.183 324.107 323.994 328.033 324C344.54 324 358 309.805 358 292.319C357.996 285.046 355.612 277.985 351.226 272.242ZM328.038 315.986C315.7 315.986 305.653 305.363 305.653 292.311C305.669 291.271 305.28 290.267 304.571 289.519C303.863 288.77 302.892 288.337 301.87 288.314C301.363 288.322 300.862 288.432 300.396 288.638C299.931 288.843 299.51 289.14 299.157 289.512C298.805 289.884 298.528 290.323 298.343 290.804C298.158 291.285 298.069 291.798 298.079 292.315C298.079 298.232 299.639 303.781 302.304 308.525C300.253 310.876 297.737 312.759 294.921 314.051C292.104 315.343 289.052 316.014 285.963 316.02C273.621 316.02 263.565 305.394 263.565 292.345C263.565 279.301 273.621 268.674 285.963 268.674C288.64 268.674 291.237 269.18 293.727 270.123C293.757 270.123 293.783 270.153 293.812 270.153C294.675 270.461 295.891 271.062 296.269 271.395C296.638 271.737 297.072 271.998 297.544 272.163C298.017 272.327 298.517 272.391 299.015 272.35C299.513 272.31 299.997 272.166 300.438 271.927C300.878 271.688 301.266 271.36 301.577 270.962C302.234 270.152 302.558 269.114 302.481 268.067C302.404 267.019 301.933 266.042 301.165 265.34C299.507 263.861 296.936 262.853 296.303 262.615C293.01 261.344 289.518 260.695 285.997 260.699C285.516 260.699 285.04 260.699 284.56 260.729C285.07 248.118 294.9 238.036 306.957 238.036C319.295 238.036 329.342 248.658 329.342 261.711C329.354 265.451 328.509 269.143 326.875 272.493C325.241 275.844 322.863 278.761 319.928 281.014C319.113 281.649 318.566 282.577 318.4 283.608C318.234 284.639 318.462 285.696 319.036 286.563C319.763 287.644 320.949 288.249 322.126 288.249C322.917 288.249 323.686 287.988 324.319 287.505C329.971 283.194 334.027 277.068 335.832 270.119C344.481 273.514 350.49 282.354 350.49 292.345C350.46 305.363 340.414 315.986 328.038 315.986Z" fill="#FD6A00"/>
</g>
<defs>
<clipPath id="clip0_1_294">
<rect x="0.984375" y="0.984375" width="399.984" height="499.984" rx="18" fill="white"/>
</clipPath>
</defs>
</svg>
