<svg width="32" height="33" viewBox="0 0 32 33" fill="none" xmlns="http://www.w3.org/2000/svg">
<g clip-path="url(#clip0_3_308)">
<path d="M4.72722 27.7144C-9.56841 12.2059 11.6002 -9.8562 27.8767 5.00807C28.1104 4.91806 28.9002 3.52961 29.6137 2.17956C31.9176 8.88675 33.0256 14.3664 32.2338 18.8447C29.8331 32.4227 14.7249 36.0472 6.21752 29.0474C7.16682 28.981 7.57722 28.5258 7.77574 28.0409C8.05349 27.3625 7.77613 26.6467 7.43473 26.3536C6.34255 25.4157 5.11039 26.0699 4.8348 27.0602C4.7774 27.2664 4.79289 27.6677 4.72722 27.7144ZM29.4498 3.68561C27.2586 7.52646 22.6497 10.9645 16.0107 11.1458C11.7562 11.2619 9.03866 12.0831 6.89931 14.4856C3.85 17.9101 4.2718 22.8972 6.88907 24.8681C7.15813 25.0707 7.52203 25.2928 7.83236 25.3129C17.0684 23.6037 23.2564 21.266 27.6905 13.3557C26.184 18.3283 22.6942 21.4065 19.9219 23.4248C17.4176 25.2481 11.4783 26.5486 9.61318 27.4266C9.54416 27.52 9.63354 27.5523 9.83402 27.5267C13.7154 27.0314 17.5294 27.8262 21.8107 27.3931C31.406 26.4225 34.6508 18.0644 29.4498 3.68561Z" fill="#6CCA4E"/>
</g>
<defs>
<clipPath id="clip0_3_308">
<rect width="32.4881" height="32.4881" fill="white" transform="translate(0 0.0625)"/>
</clipPath>
</defs>
</svg>
