<svg width="33" height="33" viewBox="0 0 33 33" fill="none" xmlns="http://www.w3.org/2000/svg">
<g clip-path="url(#clip0_3_372)">
<path d="M9.49926 17.3671C9.18989 17.8827 8.73415 18.2994 8.49489 18.9081C7.99506 19.9861 8.18846 22.3198 7.87317 22.3238C7.50511 22.5003 6.92505 21.4405 6.67768 20.8088C6.05149 19.211 5.93516 16.6382 6.48614 14.7991C7.24905 12.3729 7.29664 12.4998 6.24708 11.3575C5.27666 9.94114 4.8149 7.64361 4.19061 6.01571C3.23366 3.88678 0.977754 2.09761 2.18208 1.29049C2.61533 0.927369 4.07038 1.64716 5.1522 2.36049C5.9164 2.86438 6.41622 3.39927 6.5818 3.39642C8.40707 3.34668 9.12092 3.426 12.0816 5.19418C14.8382 7.06346 17.0919 9.72449 18.6336 12.8988C19.0166 14.2286 20.8651 18.5596 22.1247 20.7575C22.45 21.224 23.706 21.4743 24.2768 21.7333C25.6395 22.1911 25.9043 22.4144 27.816 23.8907C28.1554 24.1474 29.1987 24.7104 29.2507 25.1744C27.5688 25.1255 26.2843 25.2932 25.1859 25.7906C24.8738 25.9321 24.3761 25.9357 24.3251 26.3559C24.5956 26.6499 24.3497 27.0782 25.7597 28.4617C27.1942 29.7484 27.8872 29.8543 29.6336 30.8759C31.307 32.0354 31.3288 32.3955 31.6898 32.5193V32.468C31.3344 31.6294 31.3551 31.7488 30.7334 31.0811C28.4794 28.0564 26.8249 28.2638 26.1424 26.8181C27.974 26.1131 28.9236 26.3643 30.638 25.7394V25.5339C29.4748 23.6889 26.1528 20.9497 23.1729 19.9748C21.268 16.3411 20.4706 13.7568 19.4944 11.666C17.4428 7.94544 12.0239 1.80794 7.10786 2.21501C6.78677 2.07085 6.45269 1.64889 6.15142 1.44455C4.95188 0.630684 1.87506 -1.13959 0.986594 1.18781C0.425603 2.65688 1.82499 4.09048 2.32547 4.83462C2.67681 5.35685 3.12659 5.94233 3.37757 6.52959C3.62328 7.16606 3.5529 7.63771 4.81233 10.7414C5.74337 12.7547 5.91712 12.1639 6.10348 12.8987C5.80818 13.3425 5.79135 14.0314 5.62537 14.5937C4.28261 19.0672 6.38918 24.3534 8.44695 23.4797C9.50141 23.0208 9.14689 21.2456 9.57931 20.0619C10.1943 21.2141 10.3847 22.7052 13.1816 24.9693C13.6785 25.3723 14.2109 26.106 14.8458 26.3375C14.1885 25.8819 13.6238 25.1951 13.0859 24.4556C12.2145 23.185 11.4443 21.7941 10.7427 20.3464C9.59301 18.0543 9.83785 17.6197 9.49926 17.3671ZM7.90815 6.88212C7.58218 6.11218 7.45711 6.28913 7.11191 5.90949C6.7653 5.90264 6.51307 5.95826 6.25384 6.01901C6.23962 6.02813 6.24316 6.04679 6.25495 6.06988C6.42026 6.43472 6.75839 6.66942 6.96286 6.98371L7.43561 8.04958C7.7866 7.79803 7.9116 7.38576 7.90815 6.88212Z" fill="#39ADB5"/>
</g>
<defs>
<clipPath id="clip0_3_372">
<rect width="32.4881" height="32.4881" fill="white" transform="translate(0.03125 0.03125)"/>
</clipPath>
</defs>
</svg>
