<svg width="33" height="33" viewBox="0 0 33 33" fill="none" xmlns="http://www.w3.org/2000/svg">
<path fill-rule="evenodd" clip-rule="evenodd" d="M2.98883 2.98901V29.4993H29.4991V2.98901H2.98883ZM23.1327 15.8653V15.8657C23.3869 15.8665 23.6758 15.8796 23.8931 15.9031C24.7781 15.9989 25.4672 16.3807 26.0535 17.0997C26.3454 17.458 26.4453 17.6147 26.424 17.6817C26.4103 17.725 26.21 17.8685 25.5731 18.2913C24.9475 18.7066 24.7459 18.831 24.6991 18.831C24.6517 18.831 24.5528 18.7293 24.4103 18.5339C24.1358 18.1578 23.8556 17.9861 23.4223 17.9288C22.9564 17.8671 22.5385 18.014 22.3338 18.3115C22.1589 18.5656 22.1325 18.9746 22.2715 19.2717C22.4326 19.6159 22.7242 19.8062 23.8417 20.2963C25.1306 20.8614 25.7837 21.2482 26.2594 21.7283C26.7717 22.2453 27.0312 22.8422 27.1109 23.6865C27.1499 24.098 27.1023 24.5857 26.9845 24.9823C26.6957 25.9544 25.9164 26.6662 24.7741 27.0012C24.4583 27.0938 24.1645 27.1491 23.8738 27.1704C23.4301 27.2031 22.795 27.1851 22.4128 27.1294C21.4457 26.9886 20.3539 26.4258 19.8096 25.7876C19.5423 25.4744 19.2012 24.9589 19.2012 24.8682C19.2012 24.8245 19.2228 24.7996 19.3088 24.745C19.5636 24.5831 21.0238 23.7484 21.0521 23.7484C21.0692 23.7484 21.1455 23.8383 21.2215 23.9482C21.3938 24.1969 21.8173 24.6244 22.0327 24.767C22.2086 24.8835 22.4335 24.977 22.7006 25.0445C22.8535 25.0827 22.9345 25.0895 23.2682 25.0895C23.6092 25.0893 23.6791 25.0836 23.8317 25.0426C24.2352 24.934 24.5501 24.7093 24.6836 24.4349C24.7421 24.3163 24.7432 24.3015 24.7432 24.0138V23.7156L24.6715 23.5733C24.4978 23.2285 24.1235 22.9919 22.9402 22.4794C22.3967 22.2439 21.731 21.9119 21.4711 21.7468C20.8779 21.3698 20.4669 20.9389 20.1971 20.4114C19.9287 19.8869 19.8887 19.6916 19.8881 18.9029C19.8874 18.2855 19.8864 18.293 20.0142 17.8989C20.1302 17.5413 20.3676 17.1418 20.6297 16.8633C21.1528 16.3072 21.9171 15.9499 22.7353 15.8788C22.84 15.8689 22.9801 15.865 23.1327 15.8654L23.1327 15.8653ZM16.0919 15.9873H16.0922C17.668 15.9881 18.5714 15.9935 18.5859 16.0026C18.6132 16.0196 18.6166 16.1567 18.6166 17.032V18.0418L17.0441 18.0475L15.4716 18.0532V22.5179C15.4716 24.9736 15.4667 26.9972 15.4598 27.0151C15.4487 27.0452 15.3278 27.0475 14.3046 27.0475H13.1618L13.15 27.0013C13.1424 26.9759 13.1368 24.9522 13.1367 22.5041L13.1363 18.053L11.5638 18.0474L9.99133 18.0417V17.0438C9.99133 16.2524 9.9968 16.0405 10.0179 16.0194C10.0395 15.9971 10.842 15.9914 14.2999 15.9879C14.9666 15.9873 15.5666 15.987 16.0919 15.9873Z" fill="#0288D1"/>
</svg>
